<?xml version="1.0" standalone="no"?>
<!DOCTYPE svg PUBLIC "-//W3C//DTD SVG 20010904//EN"
 "http://www.w3.org/TR/2001/REC-SVG-20010904/DTD/svg10.dtd">
<svg version="1.0" xmlns="http://www.w3.org/2000/svg"
 width="512.000000pt" height="512.000000pt" viewBox="0 0 512.000000 512.000000"
 preserveAspectRatio="xMidYMid meet">

<g transform="translate(0.000000,512.000000) scale(0.100000,-0.100000)"
fill="#000000" stroke="none">
<path d="M2140 4740 c-173 -43 -209 -58 -245 -106 -38 -49 -41 -64 -80 -321
-19 -131 -37 -248 -40 -260 -5 -21 -11 -23 -81 -23 -78 0 -126 -16 -138 -45
-3 -9 -6 -86 -6 -171 0 -151 1 -156 25 -179 22 -22 32 -25 105 -25 l80 0 0
-51 c0 -45 -2 -50 -17 -44 -33 14 -131 17 -166 6 -47 -16 -103 -79 -118 -133
-17 -65 -6 -229 21 -311 40 -119 124 -192 234 -206 l51 -6 6 -55 c4 -30 10
-71 13 -90 l7 -35 -260 -149 c-273 -156 -293 -172 -276 -228 4 -13 93 -109
197 -215 l190 -191 -160 -82 c-223 -112 -303 -189 -361 -343 -23 -64 -71 -401
-71 -501 1 -120 47 -177 221 -276 766 -433 1566 -474 2340 -121 167 76 343
176 387 220 79 79 85 134 47 429 -46 354 -105 440 -407 592 l-160 82 190 191
c104 106 193 202 197 215 17 57 -3 73 -277 229 l-259 148 7 35 c3 19 9 60 13
90 l6 55 51 6 c110 14 194 87 234 206 31 94 39 251 16 321 -21 61 -79 118
-131 128 -39 7 -119 1 -147 -11 -16 -6 -18 -1 -18 44 l0 51 80 0 c73 0 83 3
105 25 24 24 25 28 25 185 0 203 -2 206 -145 212 l-59 3 -37 245 c-21 135 -42
262 -49 283 -14 47 -62 103 -109 126 -61 31 -347 94 -401 89 -73 -7 -132 -47
-166 -113 -16 -30 -32 -55 -35 -55 -3 0 -14 18 -24 39 -36 81 -116 132 -202
130 -26 -1 -118 -18 -203 -39z m236 -128 c6 -4 23 -30 37 -58 44 -87 110 -125
189 -110 48 9 88 46 123 112 21 42 37 60 53 62 31 5 329 -67 341 -82 9 -11 81
-444 81 -487 0 -18 -22 -19 -633 -19 l-633 0 37 246 c21 136 43 252 49 258 12
12 280 83 320 85 14 0 30 -3 36 -7z m1034 -792 l0 -50 -850 0 -850 0 0 50 0
50 850 0 850 0 0 -50z m-215 -615 c0 -359 -2 -406 -18 -460 -57 -186 -196
-325 -382 -381 -87 -27 -383 -27 -470 -1 -182 56 -322 194 -381 377 -15 48
-18 108 -22 448 -2 216 -1 400 2 408 5 12 91 14 638 12 l633 -3 0 -400z
m-1475 149 l40 -16 0 -154 0 -154 -29 0 c-67 0 -110 74 -118 206 -8 110 -1
134 37 134 16 0 48 -7 70 -16z m1786 -10 c11 -42 -2 -185 -21 -232 -21 -51
-57 -82 -96 -82 l-29 0 0 154 0 154 38 15 c20 9 52 16 69 16 27 1 34 -4 39
-25z m-1616 -854 c37 -58 137 -153 203 -195 56 -35 56 -49 2 -131 -31 -47 -45
-58 -166 -119 l-132 -67 -163 163 c-90 90 -163 167 -161 172 1 4 88 57 192
116 105 60 191 109 191 110 1 1 16 -21 34 -49z m1588 -74 c94 -54 172 -101
172 -105 0 -3 -74 -80 -164 -170 l-163 -163 -132 67 c-121 61 -135 72 -166
119 -54 82 -54 96 2 131 65 40 166 137 204 197 29 45 33 48 53 35 11 -7 99
-58 194 -111z m-918 -231 c80 0 172 3 205 8 l60 7 38 -73 c47 -92 48 -119 5
-145 -78 -47 -134 -57 -308 -57 -174 0 -230 10 -307 57 -44 26 -43 53 5 145
l37 74 60 -8 c33 -4 125 -8 205 -8z m-497 -417 c14 -367 82 -704 202 -1000 23
-60 41 -108 38 -108 -4 0 -448 374 -486 410 -18 17 -16 18 55 35 80 19 103 34
113 72 10 40 -2 59 -73 114 -122 96 -192 190 -192 259 0 41 38 117 108 215 51
72 65 84 137 122 44 23 83 42 86 43 3 0 9 -73 12 -162z m1092 119 c72 -38 86
-50 137 -122 70 -98 108 -174 108 -215 0 -69 -70 -162 -195 -261 -68 -53 -80
-72 -70 -112 10 -38 33 -53 113 -72 71 -17 73 -18 55 -35 -70 -66 -495 -420
-491 -409 164 401 229 694 245 1107 3 89 9 162 12 162 3 -1 42 -20 86 -43z
m-763 -117 c98 -16 332 -8 408 14 30 8 66 19 79 22 l23 7 -7 -104 c-24 -367
-95 -675 -220 -958 -46 -105 -104 -211 -115 -211 -11 0 -69 106 -115 211 -125
283 -197 598 -221 961 l-7 107 49 -18 c27 -11 84 -24 126 -31z m1372 -214 c73
-72 94 -132 122 -344 28 -216 29 -260 9 -289 -41 -58 -387 -227 -627 -306
-101 -34 -337 -92 -343 -85 -2 2 140 125 315 273 185 156 324 282 331 298 9
21 9 34 -1 57 -16 38 -28 45 -107 60 -35 7 -63 15 -63 17 0 3 21 28 46 56 101
113 138 246 96 354 l-20 52 100 -50 c59 -30 117 -67 142 -93z m-2174 131 c0
-2 -7 -25 -16 -51 -36 -104 3 -235 100 -343 25 -28 46 -53 46 -56 0 -2 -28
-10 -62 -17 -80 -15 -92 -22 -108 -60 -10 -23 -10 -36 -1 -57 7 -16 146 -141
331 -298 176 -148 318 -271 316 -273 -9 -9 -255 55 -385 100 -223 77 -550 239
-586 291 -20 29 -19 73 9 289 28 212 49 272 122 344 44 45 234 151 234 131z"/>
<path d="M2153 3539 c-37 -11 -73 -52 -73 -84 0 -12 10 -35 22 -50 20 -26 23
-27 92 -20 66 6 74 4 105 -19 44 -33 75 -33 106 -1 73 72 -30 186 -165 184
-30 0 -69 -5 -87 -10z"/>
<path d="M2790 3534 c-92 -40 -127 -118 -75 -169 31 -32 62 -32 106 1 31 23
39 25 105 19 69 -7 72 -6 92 20 27 35 28 65 2 98 -36 46 -158 62 -230 31z"/>
<path d="M2184 3266 c-41 -18 -64 -52 -64 -96 0 -44 23 -78 64 -95 40 -17 79
-9 110 22 80 80 -7 213 -110 169z"/>
<path d="M2880 3273 c-41 -13 -60 -29 -75 -60 -20 -42 -13 -83 21 -116 31 -31
70 -39 110 -22 41 17 64 51 64 95 0 45 -23 78 -66 96 -18 8 -35 14 -36 13 -2
0 -10 -3 -18 -6z"/>
<path d="M2285 2765 c-40 -39 -34 -84 16 -130 23 -21 67 -49 98 -64 49 -23 68
-26 161 -26 93 0 112 3 161 26 31 15 75 43 98 64 50 46 56 91 16 130 -31 32
-62 32 -106 -1 -57 -44 -110 -64 -169 -64 -59 0 -112 20 -169 64 -44 33 -75
33 -106 1z"/>
</g>
</svg>
