<?xml version="1.0" standalone="no"?>
<!DOCTYPE svg PUBLIC "-//W3C//DTD SVG 20010904//EN"
 "http://www.w3.org/TR/2001/REC-SVG-20010904/DTD/svg10.dtd">
<svg version="1.0" xmlns="http://www.w3.org/2000/svg"
 width="50.000000pt" height="50.000000pt" viewBox="0 0 50.000000 50.000000"
 preserveAspectRatio="xMidYMid meet">

<g transform="translate(0.000000,50.000000) scale(0.100000,-0.100000)"
fill="#000000" stroke="none">
<path d="M187 487 c-30 -23 -36 -58 -14 -94 18 -31 23 -33 70 -33 58 0 65 4
89 41 14 21 14 29 3 56 -7 17 -22 33 -32 36 -35 9 -101 6 -116 -6z"/>
<path d="M67 392 c-24 -26 -21 -55 8 -82 17 -16 22 -27 15 -34 -15 -15 -12
-52 5 -66 8 -7 15 -18 15 -24 0 -39 107 -176 138 -176 15 0 67 49 94 89 l17
23 34 -20 33 -21 -4 29 c-4 25 -1 30 17 30 27 0 26 6 -3 45 -15 19 -23 40 -20
52 3 11 -1 25 -10 32 -13 11 -12 16 14 38 17 14 30 35 30 47 0 46 -64 74 -92
40 -43 -52 -47 -54 -108 -54 -61 0 -65 2 -108 54 -17 21 -55 20 -75 -2z m93
-127 c14 -17 40 -20 40 -5 0 14 76 12 101 -2 17 -11 22 -10 30 5 13 22 32 22
53 -1 15 -18 15 -20 -2 -39 -17 -20 -18 -20 -62 -2 -58 23 -95 23 -146 0 -33
-15 -44 -16 -57 -6 -22 16 -22 41 1 54 23 14 27 13 42 -4z"/>
</g>
</svg>
